<svg version="1.1" xmlns="http://www.w3.org/2000/svg" xmlns:xlink="http://www.w3.org/1999/xlink" width="50px" height="50px" viewBox="0,0,256,256">
  <g fill="#dedede" fill-rule="nonzero" stroke="none" stroke-width="1" stroke-linecap="butt" stroke-linejoin="miter" stroke-miterlimit="10" stroke-dasharray stroke-dashoffset="0" font-family="none" font-weight="none" font-size="none" text-anchor="none" style="mix-blend-mode: normal">
    <g transform="scale(5.12,5.12)">
      <path d="M12.375,3.03125c-0.32031,0.01563 -0.68359,0.10938 -1,0.46875c-0.42578,0.47656 -0.39453,1.15234 -0.21875,1.625c0.10938,0.29297 0.55078,1.31641 1.1875,2.875c0.63672,1.55859 1.4375,3.58203 2.25,5.5625c1.33984,3.26563 2.23438,5.41406 2.65625,6.4375h-10.625c-0.39062,-0.75 -2.21484,-4.27344 -2.59375,-5c-0.21484,-0.41406 -0.60156,-0.71094 -0.96875,-0.84375c-0.36719,-0.13281 -0.70703,-0.14844 -1.03125,-0.15625h-0.71875c-0.0625,0 -0.41406,-0.04297 -0.8125,0.25c-0.39844,0.29297 -0.5,0.83594 -0.46875,1.1875c0.02344,0.25391 0.03516,0.35547 0.09375,0.65625c0.05859,0.30078 0.15625,0.69141 0.25,1.15625c0.1875,0.92969 0.41016,2.13281 0.65625,3.3125c0.47266,2.26172 0.93359,4.29688 0.96875,4.46875c-0.08203,0.39453 -1.88672,9.00391 -1.96875,9.40625c-0.08203,0.39063 0.08594,1.00781 0.4375,1.28125c0.35156,0.27344 0.65625,0.28125 0.84375,0.28125h0.6875c0.50781,-0.00391 0.82031,0.03125 1.28125,-0.1875c0.23047,-0.10937 0.45313,-0.30859 0.5625,-0.46875c0.10938,-0.16016 0.14453,-0.26172 0.1875,-0.34375c0.37891,-0.72656 2.20313,-4.25 2.59375,-5h10.625c-0.42187,1.02344 -1.31641,3.17188 -2.65625,6.4375c-0.8125,1.98047 -1.61328,4.00391 -2.25,5.5625c-0.63672,1.55859 -1.07812,2.58203 -1.1875,2.875c-0.17578,0.47266 -0.20703,1.14844 0.21875,1.625c0.42578,0.47656 0.94531,0.5 1.3125,0.46875c0.38281,-0.03125 1.47266,-0.15234 2.34375,-0.25c1,-0.10937 1.64063,-0.85547 1.78125,-1.03125c0.08203,-0.10156 0.26563,-0.32422 0.625,-0.78125c0.35938,-0.45703 0.84375,-1.08594 1.4375,-1.84375c1.19141,-1.51953 2.78125,-3.50781 4.34375,-5.5c2.97656,-3.80078 5.66797,-7.21875 5.9375,-7.5625h14.59375c2.15234,0 3.74609,-0.89062 4.75,-1.9375c0.50391,-0.52344 0.87891,-1.07812 1.125,-1.59375c0.24609,-0.51562 0.375,-0.96875 0.375,-1.46875c0,-0.50391 -0.16016,-0.95312 -0.40625,-1.46875c-0.24609,-0.51562 -0.58984,-1.07031 -1.09375,-1.59375c-1.00781,-1.04297 -2.63672,-1.9375 -4.78125,-1.9375h-14.5625c-0.26953,-0.34375 -2.96094,-3.76172 -5.9375,-7.5625c-1.5625,-1.99219 -3.15234,-3.98047 -4.34375,-5.5c-0.59375,-0.75781 -1.07812,-1.38672 -1.4375,-1.84375c-0.35937,-0.45703 -0.54297,-0.67969 -0.625,-0.78125c-0.14062,-0.17578 -0.78125,-0.92187 -1.78125,-1.03125c-0.87109,-0.09766 -1.96094,-0.21875 -2.34375,-0.25c-0.09375,-0.00781 -0.20703,-0.00391 -0.3125,0zM13.3125,5.09375c0.49219,0.04688 0.94922,0.09375 1.5,0.15625c0.38672,0.04297 0.22656,0.03516 0.4375,0.3125h0.03125c-0.03125,-0.03906 0.23438,0.29297 0.59375,0.75c0.35938,0.45703 0.84375,1.08594 1.4375,1.84375c1.19141,1.51563 2.75,3.53906 4.3125,5.53125c3.125,3.98438 6.21875,7.9375 6.21875,7.9375l0.3125,0.375h15.5625c1.60547,0 2.65625,0.62891 3.34375,1.34375c0.34375,0.35547 0.59375,0.73828 0.75,1.0625c0.15625,0.32422 0.1875,0.61328 0.1875,0.59375c0,-0.01562 -0.03516,0.26953 -0.1875,0.59375c-0.15234,0.32422 -0.40625,0.70703 -0.75,1.0625c-0.68359,0.71094 -1.69922,1.34375 -3.3125,1.34375h-15.59375l-0.3125,0.375c0,0 -3.09375,3.95313 -6.21875,7.9375c-1.5625,1.99219 -3.12109,4.01563 -4.3125,5.53125c-0.59375,0.75781 -1.07812,1.38672 -1.4375,1.84375c-0.35937,0.45703 -0.625,0.78906 -0.59375,0.75l-0.03125,0.03125c-0.18359,0.24609 -0.0625,0.23828 -0.4375,0.28125c-0.55078,0.0625 -1.00781,0.10938 -1.5,0.15625c0.17578,-0.4375 0.39063,-0.97656 0.875,-2.15625c0.63672,-1.55859 1.46875,-3.55078 2.28125,-5.53125c1.625,-3.96094 3.21875,-7.84375 3.21875,-7.84375l0.5625,-1.375h-14.8125l-0.28125,0.53125c0,0 -2.38281,4.57813 -2.84375,5.46875c-0.00391,-0.00391 -0.06641,-0.00781 -0.125,0c0.35938,-1.75391 1.78125,-8.8125 1.78125,-8.8125l0.0625,-0.1875l-0.0625,-0.21875c0,0 -0.47656,-2.26953 -0.96875,-4.625c-0.24609,-1.17578 -0.5,-2.39062 -0.6875,-3.3125c-0.07031,-0.34766 -0.10547,-0.58984 -0.15625,-0.84375c0.05859,0.00781 0.13281,0.02734 0.15625,0.03125c0.47656,0.91797 2.84375,5.4375 2.84375,5.4375l0.28125,0.53125h14.8125l-0.5625,-1.375c0,0 -1.59375,-3.88281 -3.21875,-7.84375c-0.8125,-1.98047 -1.64453,-3.97266 -2.28125,-5.53125c-0.48437,-1.17969 -0.69922,-1.71875 -0.875,-2.15625z"></path>
    </g>
  </g>
</svg>